<svg id="Layer_1" data-name="Layer 1" xmlns="http://www.w3.org/2000/svg" viewBox="0 0 336.38 292.31"><defs><style>.cls-1{fill:#fe2950;}</style></defs><g id="_2vLiDy" data-name="2vLiDy"><path class="cls-1" d="M110.78,271.33a31.74,31.74,0,0,0-5-5.43l-4-4.82-6.22-9-.73-1.23-5.52-11q-1.69-4.55-3.38-9.08l-.28-1.23q-1.22-4.8-2.45-9.6L81.76,209l-.14-9.58.78-11,1.88-9.58A133.88,133.88,0,0,1,92,157.59L95.63,151A7.48,7.48,0,0,0,97.54,148l7.8-10.18,1.16-1.33,9.19-9,1-.87,9.73-7.2,4.79-2.94q2.7-1.41,5.38-2.84l11-4.55,7.1-2.18a5.23,5.23,0,0,0,3.13-.75l9.59-1.51,11-.67,9.52.38,11.05,1.67,2.14.45,8.15,2.3,9.56,3.64a138.9,138.9,0,0,1,21.21,13.12l1.43,1.2c2.49,2.41,5,4.8,7.45,7.26,1,1,1.68.82,2.25-.38l6.44-6.13a10.3,10.3,0,0,0,3.16-2.64l9.71-6.74,1.87-1.15,8.38-4.27A125.38,125.38,0,0,1,302,105.9l9.5-1.4,11-.49,9.57.65,10.95,1.8h.06l10.28,3,9.58,4c7.5,3.7,14.26,8.57,21,13.41l0,0,10.25,10.24.05,0a161.2,161.2,0,0,1,13.83,21.06l4.08,9.61,2.67,8.51.33,1.73q1,5.49,2,11c.24,3.19.47,6.38.71,9.58l-.23,11c-.45,3.2-.89,6.41-1.34,9.61a156.39,156.39,0,0,1-6.71,21.28l-4.88,9.6-.74,1.25q-3.11,4.5-6.19,9l-4.05,4.89a28.61,28.61,0,0,0-4.94,5.37,32.24,32.24,0,0,0-5.33,5.68,19.92,19.92,0,0,0-4.27,4.61l-6.14,5.89a22.31,22.31,0,0,0-4.8,4.4l-6.1,5.5L357,301.63a18.43,18.43,0,0,0-4.34,4,42.58,42.58,0,0,0-6.89,6.25L342.32,315a64.06,64.06,0,0,0-7.79,7.12,5.89,5.89,0,0,0-2.4,2.19,74.54,74.54,0,0,0-9,8.16l-1.38,1.27a83.19,83.19,0,0,0-9.81,8.95l-.53.45a92.37,92.37,0,0,0-10.13,9.25,2.56,2.56,0,0,0-1.51,1.32,67.57,67.57,0,0,0-8.2,7.48c-1,.9-2,1.8-3,2.71a54.84,54.84,0,0,0-7.41,6.72,16.81,16.81,0,0,0-4,3.67,45.25,45.25,0,0,0-6.76,6.21,18.73,18.73,0,0,0-4.4,4,26.92,26.92,0,0,0-5.3,4.81l-6.21,5.55-4,1.51c-3.15,0-5.59-1.33-7.9-3.44q-20.55-18.84-41.27-37.5c-.8-.72-1.38-1.87-2.72-1.85l0,0c-2.89-4-6.88-6.79-10.52-10l0,0a108.68,108.68,0,0,0-10.11-9.19l-1.33-1.2a82,82,0,0,0-9-8.23,5.21,5.21,0,0,0-2.14-2A58.63,58.63,0,0,0,157.8,316a13.66,13.66,0,0,0-3.85-3.53,47.19,47.19,0,0,0-6.93-6.32,19.83,19.83,0,0,0-4.25-3.88,40.69,40.69,0,0,0-6.11-5.55,28,28,0,0,0-5.32-4.83,27.39,27.39,0,0,0-5-4.6l-5.94-5.7a22.54,22.54,0,0,0-4.32-4.67A33.82,33.82,0,0,0,110.78,271.33Z" transform="translate(-81.62 -104)"/></g></svg>