<svg id="Layer_1" data-name="Layer 1" xmlns="http://www.w3.org/2000/svg" viewBox="0 0 500 500"><defs><style>.cls-1{fill:#fff;}</style></defs><path class="cls-1" d="M351,174.86,220.81,196.14c0,48.14-1.57,95.4.46,142.5,1.93,44.81-36.45,57.58-65.6,52.16-18.36-3.42-29.33-16.87-29.42-34.29-.08-17.58,10.68-30.42,29.18-34.45,12.55-2.73,31.5-1.17,36.27-8.7,7.08-11.16,5.06-28.67,5.26-43.49.54-38.78.63-77.57-.05-116.34-.25-14.45,4.22-21.11,19.42-23.21,46.17-6.37,92.14-14.19,138.18-21.58,13.08-2.1,20.22,2.24,20.19,16.41-.14,66.38.19,132.77-.34,199.15-.14,18-10.32,31.15-26.6,38.31-18.32,8.06-38.6,10.76-53.85-3.37-8.09-7.49-12.64-22.86-12.26-34.45.54-16.12,14.36-24,29.8-26.8C351,290.81,351,290.88,351,249.92Z"/></svg>